<?xml version="1.0" encoding="utf-8"?>
<!-- Generator: Adobe Illustrator 14.0.0, SVG Export Plug-In . SVG Version: 6.00 Build 43363)  -->
<!DOCTYPE svg PUBLIC "-//W3C//DTD SVG 1.1//EN" "http://www.w3.org/Graphics/SVG/1.1/DTD/svg11.dtd">
<svg version="1.1" xmlns="http://www.w3.org/2000/svg" xmlns:xlink="http://www.w3.org/1999/xlink" x="0px" y="0px"
	 width="257.333px" height="147.833px" viewBox="0 0 257.333 147.833" enable-background="new 0 0 257.333 147.833"
	 xml:space="preserve">
<g id="guidelines" display="none">
	<line display="inline" fill="none" stroke="#FF2D00" x1="160.833" y1="21.833" x2="126.958" y2="159.208"/>
	<line display="inline" fill="none" stroke="#FF2D00" x1="181.25" y1="28.875" x2="147.375" y2="166.25"/>
</g>
<g id="Layer_3">
	<path fill="#380D09" d="M17.417,106.458l-13.25,12c0,0,6.5,8.125,15.125,13s13.381,4.508,23.065,4.379
		c9.31,0,18.81-1.754,26.435-8.504s9.066-8.6,9.033-17.112c-0.016-3.994-1.075-12.813-5.908-18.513
		c-5.466-6.445-14.781-9.566-14.781-9.566s-28.53-7.155-25.594-17.059c1.232-4.156,7.818-5.726,14.292-4.583
		c8.192,1.444,16.474,6.371,16.474,6.371l11.577-11.33c0,0-5.274-6.198-13.468-10.208c-6.064-2.967-14.428-4.059-19.783-4.078
		c-12.592-0.047-28.335,11.197-30.217,22.828c-1.375,8.5,1.383,15.676,7.625,21.125c7.875,6.875,13.478,7.771,13.478,7.771
		s25.123,6.469,25.123,14.286s-6.101,10.692-15.851,10.817S17.417,106.458,17.417,106.458z"/>
	<path fill="#380D09" d="M198.508,45.484l0.2,18.199h10.4l0.1,53.9c0,0,1.801,6.2,6.5,10.8c6.065,5.937,12.4,7.454,12.4,7.454
		h20.399l0.101-18.554l-11-0.1c0,0-2.401,0.101-5.1-2.5c-2.801-2.7-2.7-6.2-2.7-6.2l0.2-44.9h20l0.1-18.2l-20-0.1l-0.2-35.2h-20.8
		l0.2,35.4H198.508z"/>
	<path fill="#380D09" d="M156.667,49.833c-12.529-2.767-25.25-1.375-33.375,3.375l10.625-43.125l-21.188-5.188L82.604,126.333
		l21,6.062L106.5,120.5c6.167,11.666,13.194,17.279,26.667,20.333c25,5.667,47.312-11.762,53.334-38.667
		C191.667,79.083,175.917,54.083,156.667,49.833z M162.756,117.094l-30.152,8.302l-22.49-22.776l7.666-31.077l30.155-8.302
		l22.487,22.776L162.756,117.094z"/>
</g>
</svg>
